HIERARCHY
ROOT root
{
	OFFSET 0.000000 0.000000 0.000000
	CHANNELS 6 Xposition Yposition Zposition Zrotation Yrotation Xrotation
	JOINT lhip
	{
		OFFSET 0.058581 -0.082280 -0.017664
		CHANNELS 3 Zrotation Yrotation Xrotation
		JOINT lknee
		{
			OFFSET 0.043451 -0.386469 0.008037
			CHANNELS 3 Zrotation Yrotation Xrotation
			JOINT lankle
			{
				OFFSET -0.014790 -0.426874 -0.037428
				CHANNELS 3 Zrotation Yrotation Xrotation
				JOINT ltoe
				{
					OFFSET 0.041054 -0.060286 0.122042
					CHANNELS 3 Zrotation Yrotation Xrotation
					End Site
					{
						OFFSET 0.000000 0.000000 0.000000
					}
				}
			}
		}
	}
	JOINT rhip
	{
		OFFSET -0.060310 -0.090513 -0.013543
		CHANNELS 3 Zrotation Yrotation Xrotation
		JOINT rknee
		{
			OFFSET -0.043257 -0.383688 -0.004843
			CHANNELS 3 Zrotation Yrotation Xrotation
			JOINT rankle
			{
				OFFSET 0.019056 -0.420046 -0.034562
				CHANNELS 3 Zrotation Yrotation Xrotation
				JOINT rtoe
				{
					OFFSET -0.034840 -0.062106 0.130323
					CHANNELS 3 Zrotation Yrotation Xrotation
					End Site
					{
						OFFSET 0.000000 0.000000 0.000000
					}
				}
			}
		}
	}
	JOINT lowerback
	{
		OFFSET 0.004439 0.124404 -0.038385
		CHANNELS 3 Zrotation Yrotation Xrotation
		JOINT upperback
		{
			OFFSET 0.004488 0.137956 0.026820
			CHANNELS 3 Zrotation Yrotation Xrotation
			JOINT chest
			{
				OFFSET -0.002265 0.056032 0.002855
				CHANNELS 3 Zrotation Yrotation Xrotation
				JOINT lowerneck
				{
					OFFSET -0.013390 0.211636 -0.033468
					CHANNELS 3 Zrotation Yrotation Xrotation
					JOINT upperneck
					{
						OFFSET 0.010113 0.088937 0.050410
						CHANNELS 3 Zrotation Yrotation Xrotation
						End Site
						{
							OFFSET 0.000000 0.000000 0.000000
						}
					}
				}
				JOINT lclavicle
				{
					OFFSET 0.071702 0.114000 -0.018898
					CHANNELS 3 Zrotation Yrotation Xrotation
					JOINT lshoulder
					{
						OFFSET 0.122921 0.045205 -0.019046
						CHANNELS 3 Zrotation Yrotation Xrotation
						JOINT lelbow
						{
							OFFSET 0.255332 -0.015649 -0.022946
							CHANNELS 3 Zrotation Yrotation Xrotation
							JOINT lwrist
							{
								OFFSET 0.265709 0.012698 -0.007375
								CHANNELS 3 Zrotation Yrotation Xrotation
								End Site
								{
									OFFSET 0.000000 0.000000 0.000000
								}
							}
						}
					}
				}
				JOINT rclavicle
				{
					OFFSET -0.082954 0.112472 -0.023707
					CHANNELS 3 Zrotation Yrotation Xrotation
					JOINT rshoulder
					{
						OFFSET -0.113228 0.046853 -0.008472
						CHANNELS 3 Zrotation Yrotation Xrotation
						JOINT relbow
						{
							OFFSET -0.260127 -0.014369 -0.031269
							CHANNELS 3 Zrotation Yrotation Xrotation
							JOINT rwrist
							{
								OFFSET -0.269108 0.006794 -0.006027
								CHANNELS 3 Zrotation Yrotation Xrotation
								End Site
								{
									OFFSET 0.000000 0.000000 0.000000
								}
							}
						}
					}
				}
			}
		}
	}
}
MOTION
Frames: 17
Frame Time: 0.033333
-0.289778 0.232254 0.991078 88.241295 0.523935 85.650618 -3.267417 0.735563 6.112098 -0.653172 -7.456186 3.533960 3.785715 11.191014 -13.640691 0.000000 -0.000000 0.000000 4.650324 0.776528 -1.338105 -1.085115 1.634424 15.963794 0.145445 -8.745484 -16.217923 0.000000 -0.000000 0.000000 -0.056072 0.068001 7.588016 1.026854 -0.227544 -3.231571 0.439668 -0.493019 2.391988 1.699351 3.708610 -10.465635 -3.206133 -3.471105 7.489956 -26.580140 6.904365 -2.004344 -59.819270 -5.233642 10.985683 8.157774 -26.582183 10.679209 -5.099810 -2.754678 -2.978492 28.820281 0.712748 -1.384313 57.181857 5.536030 14.962792 -12.026960 18.829670 -5.838279 6.742411 1.165802 -7.597425 
-0.290089 0.231907 0.991039 88.303740 0.530999 85.693892 -3.233069 0.630429 6.000329 -0.678594 -7.562426 3.564882 3.689883 11.224161 -13.741707 0.000000 -0.000000 0.000000 4.681373 0.871954 -1.370945 -1.025918 1.686918 15.970967 0.300391 -8.932630 -16.085596 0.000000 -0.000000 0.000000 -0.134486 0.001758 7.484223 1.039429 -0.194458 -3.085512 0.455946 -0.570827 2.567972 1.832760 3.685252 -10.754171 -3.272215 -3.572575 7.677277 -26.651411 6.928720 -1.979821 -59.847688 -5.314626 11.060786 8.077204 -26.517014 10.830371 -5.113601 -2.813480 -2.973369 28.769522 0.709463 -1.452117 57.354542 5.594262 15.123310 -12.069381 18.962084 -5.821704 6.787226 1.104193 -7.736592 
-0.290339 0.231644 0.990975 88.296960 0.527851 85.630519 -3.192704 0.569545 6.059345 -0.759776 -7.655648 3.525196 4.054963 11.081818 -13.866590 0.000000 -0.000000 0.000000 4.680770 0.956105 -1.281556 -0.883190 1.877899 16.031618 0.485597 -9.111913 -15.797995 0.000000 -0.000000 0.000000 -0.170571 0.041692 7.577231 1.014948 -0.204251 -3.001476 0.437967 -0.603943 2.651881 1.930338 3.525612 -10.724843 -3.248264 -3.725440 7.607948 -26.676694 6.976376 -1.971080 -59.916924 -5.339889 11.022211 7.993632 -26.329031 11.158991 -5.304679 -2.878053 -3.011608 28.821938 0.683455 -1.351195 57.429310 5.632503 15.142303 -12.036548 19.135954 -5.716436 6.702905 1.090566 -7.635665 
-0.290540 0.231571 0.990917 88.333083 0.510337 85.594370 -3.215707 0.452418 6.086163 -0.766039 -7.732749 3.566511 4.224168 11.144907 -13.835607 0.000000 -0.000000 0.000000 4.672264 0.968726 -1.201220 -0.875014 1.914033 15.977986 0.509361 -9.173075 -15.759516 0.000000 -0.000000 0.000000 -0.177545 0.046648 7.590846 0.982364 -0.229577 -2.842021 0.377861 -0.581756 2.766444 1.970193 3.346252 -10.672207 -3.163437 -3.813567 7.591214 -26.763086 7.004645 -1.959834 -59.897534 -5.361958 11.017920 7.894076 -26.339486 11.150790 -5.339890 -2.605496 -2.985799 28.702419 0.659450 -1.394930 57.719302 5.537040 15.170721 -11.949594 19.108849 -5.622045 6.895299 1.009656 -7.609743 
-0.290714 0.231505 0.990825 88.325415 0.524330 85.631193 -3.181262 0.479931 6.046169 -0.765454 -7.762917 3.517724 4.238585 11.117629 -13.799095 0.000000 -0.000000 0.000000 4.700615 0.955512 -1.272713 -0.871758 1.939204 16.027893 0.465652 -9.193993 -15.701422 0.000000 -0.000000 0.000000 -0.169928 0.053842 7.534052 0.983020 -0.221292 -2.752955 0.358320 -0.566231 2.811043 2.003708 3.267069 -10.589622 -3.206795 -3.855807 7.552311 -26.830117 7.022174 -1.961091 -59.890082 -5.393250 11.024398 7.870591 -26.309358 11.182842 -5.261373 -2.551141 -2.899159 28.739331 0.619375 -1.329828 57.754270 5.446504 15.192645 -11.981641 19.243626 -5.631628 6.874869 0.914994 -7.551519 
-0.290713 0.231541 0.990772 88.391133 0.538770 85.628344 -3.167476 0.544528 6.056743 -0.746157 -7.857571 3.525897 4.225075 11.098671 -13.761307 0.000000 -0.000000 0.000000 4.698516 0.898802 -1.210950 -0.868657 1.888066 15.931555 0.457289 -9.155523 -15.731044 0.000000 -0.000000 0.000000 -0.159097 0.053055 7.536205 0.973625 -0.215361 -2.654985 0.363973 -0.515699 2.849290 1.991678 3.333467 -10.568043 -3.094476 -3.809785 7.539359 -26.818860 6.926482 -1.881666 -59.953383 -5.289663 11.051958 7.898399 -26.381994 11.102466 -5.083949 -2.472994 -2.857675 28.757359 0.572000 -1.140802 57.770010 5.283257 15.151111 -11.999248 19.314751 -5.562290 6.848408 0.934617 -7.646211 
-0.290895 0.231528 0.990847 88.442363 0.534660 85.627350 -3.167652 0.556143 6.026246 -0.760379 -7.935011 3.537299 4.155950 11.084473 -13.811041 0.000000 -0.000000 0.000000 4.695572 0.887605 -1.176715 -0.894644 1.814069 15.858700 0.473747 -9.108242 -15.743370 0.000000 -0.000000 0.000000 -0.139222 0.029362 7.598827 0.959949 -0.245920 -2.614623 0.349092 -0.470467 2.828193 1.891831 3.390719 -10.425665 -3.047035 -3.778459 7.529937 -26.840070 7.001677 -1.892697 -59.979347 -5.276954 11.022141 7.892081 -26.395140 11.176420 -5.342029 -2.512071 -2.739828 28.674812 0.498829 -1.213433 57.918192 5.189047 15.069432 -11.856817 18.961450 -5.445357 6.890560 0.961681 -7.674057 
-0.290960 0.231534 0.990854 88.487194 0.535479 85.634280 -3.163416 0.588562 5.986649 -0.730214 -7.918412 3.560512 4.178896 10.972518 -13.760166 0.000000 -0.000000 0.000000 4.691601 0.851036 -1.169122 -0.893821 1.829279 15.831330 0.473911 -9.114033 -15.756423 0.000000 -0.000000 0.000000 -0.087923 0.026947 7.626744 0.942391 -0.217606 -2.507835 0.323274 -0.429825 2.933363 1.807867 3.443902 -10.658785 -3.059400 -3.781518 7.480939 -26.941049 7.003905 -2.003176 -59.898529 -5.363654 11.025821 7.870316 -26.499011 11.173369 -5.230254 -2.518495 -2.674381 28.793427 0.418050 -1.046636 57.799197 5.112112 15.017154 -11.944069 19.069548 -5.560526 6.923176 0.838177 -7.678599 
-0.291105 0.231556 0.990892 88.541229 0.529191 85.657208 -3.147075 0.577643 5.927094 -0.785019 -7.925491 3.571848 4.199155 10.945764 -13.751046 0.000000 -0.000000 0.000000 4.675369 0.810263 -1.178734 -0.892621 1.815699 15.773039 0.457668 -9.115747 -15.735572 0.000000 -0.000000 0.000000 -0.025610 0.031398 7.649559 0.909328 -0.205764 -2.491986 0.276818 -0.455263 3.007184 1.761687 3.588679 -10.688790 -3.011387 -3.665653 7.452372 -26.933092 7.013408 -2.028380 -59.897697 -5.440249 11.015357 7.911696 -26.504793 11.201289 -5.242795 -2.547525 -2.672692 28.754895 0.456709 -1.052891 57.888380 5.057867 15.006454 -11.920923 18.614739 -5.539996 6.942069 0.837152 -7.661727 
-0.291428 0.231610 0.990824 88.630581 0.515438 85.694306 -3.161131 0.530135 5.822970 -0.796238 -7.919342 3.643827 4.234507 10.941930 -13.751579 0.000000 -0.000000 0.000000 4.665225 0.807948 -1.267441 -0.893618 1.782332 15.828996 0.431910 -9.174739 -15.702353 0.000000 -0.000000 0.000000 0.011194 0.055594 7.652422 0.904402 -0.191910 -2.435215 0.254475 -0.487764 3.001638 1.688446 3.555460 -10.568168 -2.972712 -3.677699 7.382133 -26.877295 6.969268 -1.975887 -59.926881 -5.539761 10.998656 7.953197 -26.517439 11.180981 -5.394216 -2.508721 -2.738329 28.725511 0.430489 -0.970021 57.917513 4.951324 14.950028 -11.996944 18.380710 -5.529719 6.984719 0.807220 -7.675510 
-0.291593 0.231717 0.990833 88.737813 0.514974 85.692695 -3.164566 0.514911 5.774587 -0.809331 -7.960275 3.695875 4.238061 10.913833 -13.767162 0.000000 -0.000000 0.000000 4.655483 0.783856 -1.285385 -0.893564 1.746899 15.866776 0.445576 -9.219794 -15.749422 0.000000 -0.000000 0.000000 0.045245 0.035335 7.680625 0.903458 -0.218899 -2.387600 0.242644 -0.485978 2.998835 1.682387 3.554539 -10.482477 -3.003123 -3.609505 7.350264 -26.821238 6.904160 -1.975487 -59.904659 -5.585297 10.985236 7.926867 -26.594377 11.198232 -5.345829 -2.426256 -2.845955 28.638740 0.402741 -0.914429 57.929835 4.902984 14.869558 -11.900663 18.222530 -5.573193 7.052363 0.637727 -7.793846 
-0.291722 0.231864 0.990874 88.797156 0.480051 85.713562 -3.211604 0.453458 5.749469 -0.818261 -7.971132 3.698722 4.265657 10.886909 -13.754080 0.000000 -0.000000 0.000000 4.607537 0.762699 -1.300743 -0.884131 1.782325 15.826947 0.449081 -9.265614 -15.691030 0.000000 -0.000000 0.000000 0.054192 0.027408 7.725612 0.891958 -0.254195 -2.367978 0.230839 -0.509933 2.967793 1.669878 3.617298 -10.466710 -2.977088 -3.503256 7.417748 -26.751495 6.746267 -1.898005 -59.884380 -5.614409 11.010962 8.005771 -26.636502 11.097396 -5.283017 -2.398321 -2.851014 28.651983 0.438289 -0.807678 57.880092 4.833223 14.842973 -11.970072 18.207129 -5.647286 7.044510 0.512768 -7.808754 
-0.291610 0.231883 0.990904 88.758596 0.472983 85.714514 -3.217781 0.464553 5.758559 -0.833263 -8.018309 3.660183 4.266752 10.973764 -13.704451 0.000000 -0.000000 0.000000 4.596871 0.772712 -1.305338 -0.882060 1.793161 15.831090 0.488312 -9.284084 -15.719461 0.000000 -0.000000 0.000000 0.071074 0.019542 7.754814 0.907294 -0.236878 -2.333466 0.236180 -0.512941 2.983497 1.607133 3.562316 -10.470578 -2.974170 -3.576518 7.394155 -26.735668 6.715753 -1.909537 -59.809610 -5.655103 10.980646 7.972213 -26.696316 10.985662 -5.254106 -2.366256 -2.955406 28.705848 0.459143 -0.817591 57.667936 4.816325 14.825773 -11.900617 18.209024 -5.612607 6.980031 0.448081 -7.672384 
-0.291622 0.231965 0.990975 88.710452 0.484956 85.705939 -3.235832 0.459312 5.754010 -0.792803 -7.936951 3.667953 4.201355 10.912263 -13.739555 0.000000 -0.000000 0.000000 4.594424 0.795278 -1.327253 -0.876739 1.776412 15.867174 0.468648 -9.228358 -15.657931 0.000000 -0.000000 0.000000 0.123722 0.026324 7.737020 0.924443 -0.205071 -2.269808 0.249842 -0.515951 3.053010 1.564003 3.609844 -10.510179 -3.059294 -3.555274 7.494330 -26.688934 6.678256 -1.965467 -59.866573 -5.784318 11.038250 8.048630 -26.610303 10.942465 -5.287179 -2.473689 -2.832587 28.796433 0.466452 -0.818816 57.430507 4.970870 14.831868 -11.888149 18.073422 -5.580980 7.040918 0.806362 -7.354251 
-0.291537 0.232074 0.991033 88.646786 0.471338 85.736772 -3.248769 0.502257 5.856842 -0.783764 -7.890557 3.396447 4.175918 10.876203 -13.654416 0.000000 -0.000000 0.000000 4.579838 0.819928 -1.376651 -0.913501 1.764580 15.874673 0.489970 -9.188401 -15.690709 0.000000 -0.000000 0.000000 0.145694 0.010002 7.734786 0.933359 -0.188842 -2.259496 0.261650 -0.505527 3.047804 1.546876 3.605759 -10.471654 -3.088642 -3.550496 7.546141 -26.663091 6.641896 -1.933607 -59.889734 -5.827507 11.045517 8.098894 -26.568463 10.781876 -5.236937 -2.587335 -2.825344 28.768561 0.493114 -0.811432 57.400855 5.007940 14.842203 -11.918798 18.203971 -5.688052 6.990603 0.810373 -7.376747 
-0.291673 0.232166 0.990985 88.570841 0.463812 85.790208 -3.242409 0.510438 5.802386 -0.819676 -7.851117 3.388274 4.235012 10.921033 -13.586269 0.000000 -0.000000 0.000000 4.566926 0.903024 -1.489659 -0.905117 1.762173 15.962091 0.499997 -9.199783 -15.725782 0.000000 -0.000000 0.000000 0.165578 0.014041 7.722644 0.953341 -0.160346 -2.275883 0.248734 -0.514883 3.046837 1.577855 3.619334 -10.368686 -3.139692 -3.512373 7.566135 -26.668090 6.633627 -1.863349 -59.828254 -5.824533 11.042546 8.143323 -26.824644 10.828302 -5.096724 -2.413391 -2.797296 28.711076 0.531026 -0.835218 57.452321 5.053907 14.850863 -11.987653 18.271560 -5.690643 6.942591 0.704286 -7.405833 
-0.291451 0.232219 0.991006 88.477368 0.457693 85.801730 -3.241945 0.550027 5.835732 -0.844362 -7.844350 3.348341 4.260422 10.966221 -13.592695 0.000000 -0.000000 0.000000 4.556789 0.940101 -1.523221 -0.904671 1.792321 16.012206 0.538929 -9.143191 -15.720873 0.000000 -0.000000 0.000000 0.146704 0.007078 7.677568 0.982816 -0.146703 -2.283539 0.279808 -0.508051 3.059238 1.597867 3.765566 -10.295642 -3.164345 -3.386078 7.683929 -26.685337 6.603063 -1.836073 -59.792988 -5.843866 11.039248 8.205608 -26.846481 10.780705 -5.104837 -2.390788 -2.708337 28.762526 0.545734 -0.844624 57.398294 5.178282 14.876073 -12.015254 18.269224 -5.704025 6.949498 0.897472 -7.287628 
